<svg width="42" height="26" fill="none" xmlns="http://www.w3.org/2000/svg"><path d="M38.061.517H2.973c-1.356 0-2.456.999-2.456 2.23v20.386c0 1.232 1.1 2.23 2.456 2.23h35.088c1.356 0 2.456-.998 2.456-2.23V2.747c0-1.231-1.1-2.23-2.456-2.23z" fill="#fff" stroke="#F3F3F3" stroke-width="1.034"/><path fill-rule="evenodd" clip-rule="evenodd" d="M22.999 13.922h-.679c-.067-.004-.12-.054-.12-.116v-3.24c.006-.061.063-.107.13-.106h.632a.127.127 0 01.12.09v.496h.014c.19-.443.458-.654.928-.654.305 0 .603.102.796.382.177.259.177.695.177 1.008v2.038a.127.127 0 01-.13.102h-.685a.124.124 0 01-.121-.102v-1.844c.004-.346.008-.787-.427-.787a.447.447 0 00-.394.26c-.095.197-.108.395-.108.614v1.743c-.002.065-.062.117-.133.116zm-2.877-3.526c1.012 0 1.559.805 1.559 1.827 0 .988-.603 1.771-1.559 1.771-.991 0-1.532-.804-1.532-1.805 0-1.002.547-1.793 1.532-1.793zm.007.662c-.502 0-.534.633-.534 1.028v.014c0 .4 0 1.226.527 1.226.534 0 .554-.681.554-1.097 0-.272-.013-.6-.102-.858-.076-.223-.229-.313-.445-.313zm-12.596 2.87h-.68a.124.124 0 01-.121-.106v-3.24c.002-.065.06-.116.13-.115h.635c.065.003.117.051.12.111v.423h.013c.166-.41.477-.6.897-.6.42 0 .693.19.884.6a.992.992 0 01.788-.593c.36-.052.72.08.945.345.185.233.179.558.174.863l-.002.152v2.044a.115.115 0 01-.04.084.135.135 0 01-.092.032h-.68c-.068-.003-.12-.054-.121-.116v-1.814c.003-.161.006-.404-.02-.51-.05-.217-.203-.278-.4-.278a.452.452 0 00-.407.265c-.065.152-.064.398-.064.58v1.757a.115.115 0 01-.04.083.134.134 0 01-.09.034h-.683c-.067-.004-.12-.055-.121-.117v-1.717l.001-.11c.006-.35.012-.783-.423-.783-.471 0-.47.493-.47.867v1.743a.115.115 0 01-.04.084.136.136 0 01-.093.032zm-2.026.04a.15.15 0 00.16-.015l.006.001c.136-.112.383-.31.522-.419.053-.042.044-.111 0-.167l-.04-.05c-.111-.139-.217-.27-.217-.535v-1.077c.002-.38.004-.727-.302-.992-.26-.232-.693-.314-1.025-.314-.648 0-1.372.224-1.523.966a.105.105 0 00.02.086.124.124 0 00.081.046l.655.066a.138.138 0 00.12-.116c.057-.255.289-.379.549-.379.14 0 .299.048.382.164.085.117.084.271.083.41v.13l-.194.019c-.36.034-.776.073-1.087.2-.422.17-.724.518-.724 1.03 0 .656.446.984 1.02.984.484 0 .749-.105 1.123-.459l.05.069c.09.123.148.203.34.352zm-.526-1.523v-.166c-.493 0-1.013.098-1.013.635 0 .274.152.458.413.458.192 0 .364-.11.472-.287.128-.21.128-.407.128-.64zm10.143.92l-.04-.05c-.112-.138-.218-.27-.218-.534v-1.083c.003-.377.005-.722-.301-.986-.261-.232-.694-.314-1.025-.314-.649 0-1.372.223-1.524.966a.1.1 0 00.02.086c.02.025.049.042.082.046l.66.066a.138.138 0 00.12-.116c.058-.255.288-.379.548-.379.14 0 .302.048.383.164.085.117.084.271.083.41v.128l-.19.018c-.36.034-.779.073-1.091.2-.427.171-.727.519-.727 1.032 0 .655.447.983 1.02.983.482 0 .749-.106 1.123-.459l.048.067c.091.125.149.204.343.354a.15.15 0 00.16-.015c.136-.111.383-.311.523-.419.058-.038.049-.106.003-.164zm-1.339-.283a.558.558 0 01-.472.287c-.26 0-.413-.184-.413-.458 0-.537.52-.635 1.013-.635v.162c0 .235 0 .433-.128.644zm1.915-2.05v-.46a.107.107 0 01.036-.085.126.126 0 01.092-.033h2.239a.13.13 0 01.091.033.111.111 0 01.038.084v.397c0 .067-.06.154-.169.291l-1.16 1.534c.43-.01.886.05 1.277.254a.21.21 0 01.121.18v.496c0 .069-.08.147-.165.107a2.763 2.763 0 00-2.366.004c-.078.038-.16-.04-.16-.108v-.472a.527.527 0 01.084-.317l1.344-1.788H15.83a.13.13 0 01-.092-.032.111.111 0 01-.038-.084zm11.835-.166c.171-.14.367-.252.578-.33.2-.074.413-.112.629-.112a1.57 1.57 0 01.621.116c.185.078.346.196.471.344.137.164.238.35.297.55.072.236.107.48.104.726.003.25-.034.5-.111.74-.064.204-.17.395-.31.563a1.39 1.39 0 01-.487.36 1.536 1.536 0 01-.635.124 1.666 1.666 0 01-1.106-.391v1.55a.111.111 0 01-.036.1.133.133 0 01-.107.033h-.422a.133.133 0 01-.108-.033.111.111 0 01-.035-.1v-4.451a.112.112 0 01.036-.1.133.133 0 01.107-.033h.314a.159.159 0 01.113.034c.03.025.05.06.052.099l.035.211zm1.007.086c-.346.003-.682.11-.957.305V13.1c.305.212.619.318.943.317.657 0 .985-.41.985-1.228 0-.82-.324-1.231-.97-1.237zm2.585.163l.053-.017c.34-.096.693-.147 1.048-.15.286 0 .486.049.6.146.115.096.172.264.172.502v.435a4.153 4.153 0 00-.9-.112c-.419 0-.752.095-1 .288a.926.926 0 00-.371.77c0 .3.101.54.301.718.2.179.472.268.814.268.212 0 .422-.039.618-.112.208-.075.4-.182.568-.317l.036.218a.13.13 0 00.05.095.15.15 0 00.107.031h.308a.133.133 0 00.107-.033.112.112 0 00.035-.1v-2.259c0-.362-.107-.629-.322-.8-.214-.172-.547-.258-1-.258-.224 0-.45.019-.67.056a2.741 2.741 0 00-.565.146.272.272 0 00-.113.07.21.21 0 00-.03.129v.177c0 .08.033.12.094.12a.251.251 0 00.06-.01zm1.382 2.267a1.566 1.566 0 01-.493.086c-.185 0-.328-.045-.428-.135-.1-.09-.15-.22-.15-.388-.001-.383.268-.575.807-.575.127 0 .255.008.382.023.126.015.25.036.375.063v.675c-.15.106-.316.191-.493.251zm3.042 1.737c.168-.132.317-.35.447-.655l1.571-3.704a.482.482 0 00.05-.16c0-.052-.033-.078-.1-.078h-.4a.275.275 0 00-.157.033.348.348 0 00-.085.145l-.965 2.567-1-2.567a.348.348 0 00-.086-.145.274.274 0 00-.157-.033h-.429c-.066 0-.1.026-.1.079a.5.5 0 00.05.159l1.376 3.15-.135.336c-.081.212-.172.357-.272.436a.664.664 0 01-.422.12 1.076 1.076 0 01-.192-.014.702.702 0 00-.108-.013c-.071 0-.107.042-.107.126v.172a.21.21 0 00.036.135c.03.032.07.054.114.063.133.033.27.048.407.046.274 0 .495-.065.664-.198z" fill="#232F3E"/><path fill-rule="evenodd" clip-rule="evenodd" d="M16.82 15.988c.155-.357.5-1.157.336-1.35h.002c-.164-.195-1.08-.093-1.493-.047-.126.014-.145-.087-.032-.16.732-.477 1.931-.34 2.07-.18.14.161-.038 1.275-.723 1.807-.106.082-.207.038-.16-.07zm-4.926.551c1.595 0 3.451-.466 4.73-1.34.212-.147.03-.364-.185-.279-1.396.546-2.895.83-4.41.838-2.102 0-4.136-.534-5.781-1.42-.144-.078-.252.059-.13.159 1.583 1.324 3.643 2.052 5.776 2.042z" fill="#F90"/></svg>