<svg width="42" height="26" fill="none" xmlns="http://www.w3.org/2000/svg"><path d="M38.06.517H2.974c-1.356 0-2.456.999-2.456 2.23v20.386c0 1.232 1.1 2.23 2.456 2.23h35.088c1.356 0 2.456-.998 2.456-2.23V2.747c0-1.231-1.1-2.23-2.456-2.23z" fill="#fff" stroke="#fff" stroke-width="1.034"/><path fill-rule="evenodd" clip-rule="evenodd" d="M19.425 16.636v-3.079h1.683c.694 0 1.277-.215 1.75-.647.477-.41.744-1 .73-1.614a2.077 2.077 0 00-.73-1.605 2.5 2.5 0 00-1.75-.658h-2.701v7.603h1.018zm0-4.013V9.97h1.709c.38-.01.747.136 1.008.403.261.244.409.58.409.93 0 .35-.148.684-.41.928a1.375 1.375 0 01-1.007.393h-1.709zm8.295-.78c-.437-.386-1.03-.579-1.784-.579-.967 0-1.697.34-2.19 1.02l.896.541a1.58 1.58 0 011.351-.69 1.48 1.48 0 01.983.356c.269.213.423.53.421.865v.223c-.391-.213-.89-.319-1.494-.319-.709.001-1.275.16-1.7.478-.424.318-.636.746-.636 1.285a1.6 1.6 0 00.603 1.274c.403.34.903.51 1.5.51.7 0 1.262-.298 1.683-.893h.045v.722h.974V13.43c0-.672-.217-1.201-.653-1.587zm-2.764 3.838a.77.77 0 01-.338-.637c0-.284.139-.52.418-.714.276-.19.621-.287 1.035-.287.568 0 1.011.122 1.329.365 0 .41-.169.767-.506 1.072a1.66 1.66 0 01-1.146.456 1.278 1.278 0 01-.792-.255zm9.009-4.247l-3.401 7.495h-1.052l1.263-2.622-2.237-4.873h1.107l1.617 3.737h.022l1.572-3.737h1.11z" fill="#000"/><path fill-rule="evenodd" clip-rule="evenodd" d="M15.31 12.894c0-.298-.027-.595-.08-.888h-4.295v1.682h2.46a2.019 2.019 0 01-.91 1.328v1.092h1.469c.86-.76 1.355-1.885 1.355-3.214z" fill="#4285F4"/><path fill-rule="evenodd" clip-rule="evenodd" d="M10.934 17.163c1.23 0 2.265-.387 3.02-1.055l-1.469-1.092c-.408.266-.935.418-1.55.418a2.715 2.715 0 01-2.558-1.804H6.864v1.126c.774 1.476 2.348 2.407 4.07 2.407z" fill="#34A853"/><path fill-rule="evenodd" clip-rule="evenodd" d="M8.377 13.63a2.516 2.516 0 010-1.671v-1.126H6.864a4.21 4.21 0 000 3.924l1.513-1.126z" fill="#FBBC04"/><path fill-rule="evenodd" clip-rule="evenodd" d="M10.934 10.156c.65-.01 1.278.225 1.748.655l1.3-1.247a4.483 4.483 0 00-3.047-1.138c-1.723 0-3.297.932-4.07 2.407l1.512 1.126a2.715 2.715 0 012.557-1.803z" fill="#EA4335"/></svg>