<svg width="103" height="19" fill="none" xmlns="http://www.w3.org/2000/svg"><path d="M10.348 0c.226.32.34.813.34 1.477 0 .656-.024 1.191-.07 1.605-.04.406-.102.8-.188 1.184-.188.859-.45 1.507-.785 1.945-.29-1.508-.665-2.586-1.125-3.234-.485-.657-1.118-.985-1.899-.985-.773 0-1.379.149-1.816.446a2.934 2.934 0 00-1.008 1.171c-.39.805-.586 1.993-.586 3.563 0 1.562.176 2.996.527 4.3.36 1.298.867 2.415 1.524 3.352 1.383 1.992 3.183 2.989 5.402 2.989-.031.351-.215.656-.55.914a.68.68 0 01-.329.14c-2.836 0-5.148-1.043-6.937-3.129C.949 13.52 0 10.496 0 6.668c0-2 .586-3.504 1.758-4.512C2.797 1.266 4.218.82 6.023.82L7.98.844c.922 0 1.57-.133 1.946-.399.156-.117.297-.265.422-.445zm5.566 13.383c0 2.531.152 4.32.457 5.367h-3.457c.219-.758.356-1.652.41-2.684.117-2.492.176-4.425.176-5.8s-.004-2.297-.012-2.766l-.023-1.43c-.047-1.695-.13-2.761-.246-3.199-.11-.445-.215-.766-.317-.96a2.93 2.93 0 00-.328-.552L12.188.82h4.277a10.65 10.65 0 00-.387 2.274l-.082 1.91-.047 1.734c-.015 1-.023 2.192-.023 3.574l-.012 3.07zm8.52-5.531c-.704 0-1.211.351-1.524 1.054-.305.703-.457 1.887-.457 3.551 0 3.57.66 5.355 1.98 5.355.704 0 1.208-.476 1.512-1.43.313-.952.47-2.26.47-3.925 0-1.664-.157-2.848-.47-3.55-.304-.704-.808-1.055-1.511-1.055zm-4.934 4.16c0-3.555 1.645-5.332 4.934-5.332s4.933 1.777 4.933 5.332c0 2.156-.453 3.863-1.36 5.12-.882 1.235-2.073 1.852-3.573 1.852s-2.692-.617-3.575-1.851c-.906-1.258-1.359-2.965-1.359-5.121zm16.137-9.785c-.164.601-.246 1.324-.246 2.168 0 .835.015 1.37.047 1.605.039.234.097.422.175.563.149.234.438.351.867.351h3.141c0 .438-.105.774-.316 1.008a1.827 1.827 0 01-1.407.633 2.11 2.11 0 01-.726-.117c-.383-.157-.68-.235-.89-.235a.934.934 0 00-.516.129.819.819 0 00-.317.352c-.14.28-.21.894-.21 1.84 0 .945.027 1.914.081 2.906.063.992.211 1.824.446 2.496.234.664.59 1.164 1.066 1.5.477.336 1.133.504 1.969.504 0 .242-.164.53-.492.867a.852.852 0 01-.223.187c-1.383 0-2.418-.164-3.105-.492-.79-.39-1.352-1.086-1.688-2.086-.336-1.015-.504-2.52-.504-4.511 0-1.743-.047-2.77-.14-3.082-.094-.32-.18-.532-.258-.633-.094-.117-.32-.262-.68-.434.484-.367.965-1.05 1.441-2.05l.586-1.231c.414-.938.766-1.543 1.055-1.817.297-.28.578-.421.844-.421zM47.754 18.75c.36-1.234.539-3.355.539-6.363 0-1.258-.066-2.094-.2-2.508-.132-.422-.3-.727-.503-.914-.196-.195-.461-.293-.797-.293-.328 0-.629.062-.902.187a2.65 2.65 0 00-.715.493c-.399.375-.723.875-.973 1.5v2.238c0 2.195.043 3.555.129 4.078.102.688.207 1.215.316 1.582h-3.457c.188-.656.313-1.527.375-2.613.141-2.719.211-4.719.211-6 0-1.29-.004-2.168-.011-2.637-.008-.477-.02-.95-.035-1.418-.04-1.703-.118-2.77-.235-3.2-.11-.437-.215-.753-.316-.948a3.39 3.39 0 00-.317-.551l-.398-.551h4.277a10.55 10.55 0 00-.386 2.203 177.808 177.808 0 00-.118 3 136.558 136.558 0 00-.035 2.895c.617-1.04 1.434-1.727 2.45-2.063a3.652 3.652 0 011.206-.187c.446 0 .848.097 1.207.293.368.187.672.457.914.808.5.711.75 1.684.75 2.918v1.254c0 2.39.032 3.89.094 4.5l.14 1.195c.056.344.138.711.247 1.102h-3.457zm6.855 0c.36-1.234.54-3.355.54-6.363 0-2.14-.188-3.602-.563-4.383a4.202 4.202 0 00-.316-.55l-.387-.54h4.066c-.117.461-.195.828-.234 1.102l-.082.703c.906-1.36 2.058-2.04 3.457-2.04 1.406 0 2.316.762 2.73 2.286.617-1.055 1.434-1.754 2.45-2.098a3.653 3.653 0 011.207-.187 2.5 2.5 0 011.218.293c.368.187.676.457.926.808.492.711.738 1.684.738 2.918v1.254c0 2.39.032 3.89.094 4.5.07.602.121 1 .153 1.195.046.344.125.711.234 1.102h-3.457c.344-1.18.515-3.3.515-6.363 0-1.242-.062-2.075-.187-2.496-.125-.43-.29-.739-.492-.926-.196-.195-.465-.293-.809-.293-1.008 0-1.808.594-2.402 1.781v1.5c0 2.39.031 3.89.094 4.5.07.602.12 1 .152 1.195.047.344.125.711.234 1.102h-3.457c.352-1.203.528-3.324.528-6.363 0-1.274-.063-2.114-.188-2.52-.125-.414-.285-.715-.48-.902-.196-.195-.465-.293-.809-.293-.336 0-.64.066-.914.2-.273.132-.52.308-.738.526-.414.407-.739.93-.973 1.57-.016.227-.023.462-.023.704v.715c0 3.008.18 5.129.539 6.363h-3.364zm9.012-7.266l-.047.211.047-.21zm18.797 1.008l-.035 2.25c0 1.399.129 2.352.386 2.86.157.304.34.539.551.703l.551.445h-3.398l-.364-1.36c-.882 1.063-2.14 1.594-3.773 1.594-.93 0-1.68-.312-2.25-.937a2.9 2.9 0 01-.75-1.992c0-.766.18-1.434.539-2.004a4.628 4.628 0 011.441-1.418c1.172-.727 2.645-1.106 4.418-1.137v-.129c0-1.898-.293-3.012-.878-3.34-.212-.117-.485-.175-.82-.175-.329 0-.657.109-.985.328-.328.218-.625.5-.89.843-.532.696-.911 1.516-1.138 2.461-.695-.414-1.042-1.207-1.042-2.379 0-.476.062-1.011.187-1.605.297 0 .578-.043.844-.129l.902-.281a8.727 8.727 0 012.59-.41c.844 0 1.515.125 2.015.375.508.25.903.62 1.184 1.113.477.836.715 2.277.715 4.324zm-6.55 3.797c0 .484.109.86.327 1.125.227.266.508.398.844.398.336 0 .66-.085.973-.257.312-.18.594-.422.844-.727.585-.695.878-1.512.878-2.45v-1.733c-1.093.101-1.996.464-2.707 1.09-.773.671-1.16 1.523-1.16 2.554zM85.91 18.75c.36-1.234.54-3.355.54-6.363 0-2.14-.173-3.602-.516-4.383-.141-.32-.391-.684-.75-1.09h4.16c-.14.492-.254 1.168-.34 2.027.734-.921 1.758-1.574 3.07-1.957.563-.164.973-.421 1.23-.773.258.617.387 1.148.387 1.594 0 .445-.023.86-.07 1.242a8.581 8.581 0 01-.21 1.101c-.204.774-.474 1.375-.81 1.805-.288-1.523-.738-2.414-1.347-2.672-.703-.304-1.39.11-2.063 1.242-.14.235-.257.485-.351.75-.008.18-.012.364-.012.551v.563c0 3.008.18 5.129.54 6.363H85.91zM98.707 2.227c-.164.601-.246 1.324-.246 2.168 0 .835.016 1.37.047 1.605.039.234.098.422.176.563.148.234.437.351.867.351h3.14c0 .438-.105.774-.316 1.008a1.827 1.827 0 01-1.406.633c-.274 0-.516-.04-.727-.117-.383-.157-.68-.235-.89-.235a.934.934 0 00-.516.129.82.82 0 00-.317.352c-.14.28-.21.894-.21 1.84 0 .945.027 1.914.082 2.906.062.992.21 1.824.445 2.496.234.664.59 1.164 1.066 1.5.477.336 1.133.504 1.969.504 0 .242-.164.53-.492.867a.846.846 0 01-.223.187c-1.383 0-2.418-.164-3.105-.492-.79-.39-1.352-1.086-1.688-2.086-.336-1.015-.504-2.52-.504-4.511 0-1.743-.046-2.77-.14-3.082-.094-.32-.18-.532-.258-.633-.094-.117-.32-.262-.68-.434.485-.367.965-1.05 1.442-2.05l.586-1.231c.414-.938.765-1.543 1.054-1.817.297-.28.578-.421.844-.421z" fill="#000"/></svg>