<svg width="40" height="25" fill="none" xmlns="http://www.w3.org/2000/svg"><path d="M37.333 24.846H2.667C1.194 24.846 0 23.733 0 22.36V2.485C0 1.113 1.194 0 2.667 0h34.666C38.806 0 40 1.113 40 2.485V22.36c0 1.372-1.194 2.485-2.667 2.485zM15.591 10.689a.21.21 0 00-.158.072.221.221 0 00-.07.156c0 .021.11.33.343.966l.504 1.372.234.64c.263.718.4 1.1.413 1.145a15.087 15.087 0 00-1.4 1.892l-.041.073a.174.174 0 00-.003.026c0 .103.09.188.203.188.01 0 .02 0 .03-.002h-.002 1.354a.379.379 0 00.314-.165h.001l4.48-6.025a.16.16 0 00.037-.1l-.001-.016v.002a.223.223 0 00-.07-.156.21.21 0 00-.157-.072h-1.354a.381.381 0 00-.316.164v.001l-1.868 2.553-.772-2.455a.367.367 0 00-.388-.262h.002l-1.315.003zm15.531-.115h-.029c-.842 0-1.599.34-2.12.88l-.003.003a2.845 2.845 0 00-.889 2.052v.028-.001c-.002.03-.002.066-.002.101 0 .556.232 1.062.61 1.438h-.001a2.265 2.265 0 001.63.573h-.005a2.95 2.95 0 001.055-.204l-.018.006c.328-.115.606-.294.824-.522l.003-.002a1.462 1.462 0 01-.038.156l.002-.01a.802.802 0 00-.035.195v.002c0 .174.076.262.228.262h1.245c.189 0 .343-.137.354-.31l.72-4.273a.208.208 0 00-.052-.183.221.221 0 00-.174-.083H33.09c-.163 0-.267.18-.3.54a1.894 1.894 0 00-1.456-.662 2 2 0 00-.22.013l.008-.001v.002zm-19.959 0h-.03c-.842 0-1.599.34-2.119.88l-.002.003a2.845 2.845 0 00-.889 2.052v.028-.001l-.002.1c0 .556.232 1.062.611 1.438a2.266 2.266 0 001.63.573h-.005a2.9 2.9 0 001.037-.204l-.017.006c.332-.118.614-.296.842-.523h.001a.99.99 0 00-.07.34v.003c0 .174.078.262.229.262h1.243c.19 0 .344-.137.355-.31l.72-4.273a.21.21 0 00-.053-.181.221.221 0 00-.174-.083h-1.337c-.163 0-.266.18-.299.54a1.928 1.928 0 00-1.468-.66c-.072 0-.14.004-.21.01l.01-.001-.003.001zm25.073-2.292l-.018-.001c-.111 0-.202.08-.211.18l-1.143 6.81a.189.189 0 00-.007.052.19.19 0 00.06.136.229.229 0 00.17.074h1.168a.402.402 0 00.036.002c.184 0 .333-.139.333-.31v-.003l1.14-6.693.001-.022a.261.261 0 00-.058-.164v.001a.222.222 0 00-.173-.062h-1.297zm-12.967 0a.298.298 0 00-.045-.003c-.186 0-.338.14-.342.312l-1.14 6.68a.213.213 0 00.052.18c.038.05.102.083.173.083h1.45c.136 0 .25-.091.275-.211v-.003l.317-1.898a.312.312 0 01.123-.212.563.563 0 01.265-.107h.003c.09-.015.193-.024.299-.025.093 0 .205.005.334.017.13.011.211.016.247.016a3.354 3.354 0 002.373-.796l-.002.002a2.855 2.855 0 00.86-2.21v.008a1.551 1.551 0 00-.672-1.398l-.005-.002a3.199 3.199 0 00-1.777-.434h.006-2.794zm-19.98 0a.387.387 0 00-.036-.002c-.184 0-.333.139-.333.31v.003l-1.142 6.679a.212.212 0 00.052.18.22.22 0 00.173.083h1.338a.294.294 0 00.045.003c.186 0 .338-.14.342-.313l.316-1.8a.315.315 0 01.123-.212.562.562 0 01.264-.107h.003c.09-.015.193-.024.298-.025h.001c.094 0 .205.005.334.017.129.011.21.016.246.016a3.36 3.36 0 002.373-.796l-.002.002a2.857 2.857 0 00.86-2.21v.008a1.551 1.551 0 00-.672-1.398l-.004-.002a3.2 3.2 0 00-1.77-.435h.006L3.29 8.282zm27.76 6.04c-.016.002-.035.002-.053.002-.296 0-.566-.1-.776-.264h.002a.891.891 0 01-.316-.722v-.028c0-.387.167-.738.44-.993a1.522 1.522 0 011.054-.414h.037-.003.038c.3 0 .571.102.78.27a.92.92 0 01.326.697l-.001.05v-.002.025c0 .382-.17.727-.445.973-.27.25-.643.404-1.054.404h-.028l-.001.003zm-19.977 0c-.016.002-.035.002-.055.002-.291 0-.56-.1-.764-.264h.001a.902.902 0 01-.308-.673v-.077c0-.387.168-.738.44-.993a1.52 1.52 0 011.054-.414h.039-.002.037c.3 0 .572.102.78.27a.92.92 0 01.325.696l-.001.05v-.001.036c0 .382-.17.726-.445.971a1.587 1.587 0 01-1.06.398h-.04zm13.23-2.65l.3-1.75c.008-.102.1-.18.21-.18h.401c.193 0 .383.012.568.036l-.021-.002a.884.884 0 01.44.205.611.611 0 01.212.46v.039-.002a1.03 1.03 0 01-.384.933h-.002a2.184 2.184 0 01-1.167.249h.007l-.562.017-.002-.005zm-19.976 0l.298-1.75a.204.204 0 01.23-.18h.332c.042-.002.09-.005.14-.005.32 0 .623.072.89.198l-.012-.005c.21.125.282.391.212.793a.924.924 0 01-.454.752l-.003.002a3.94 3.94 0 01-1.649.194l.016.001z" fill="#fff"/></svg>