<svg width="40" height="25" fill="none" xmlns="http://www.w3.org/2000/svg"><path d="M0 2.11C0 .945.955 0 2.133 0h35.734C39.045 0 40 .945 40 2.11v20.625c0 1.166-.955 2.11-2.133 2.11H2.133A2.122 2.122 0 010 22.736V2.11zm27.974 5.417a7.422 7.422 0 00-2.55-.434c-2.813 0-4.793 1.4-4.81 3.408-.016 1.484 1.414 2.312 2.493 2.806 1.108.506 1.48.829 1.475 1.28-.007.693-.884 1.01-1.702 1.01-1.14 0-1.744-.157-2.68-.543l-.366-.164-.4 2.312c.665.288 1.895.538 3.17.55 2.992 0 4.934-1.384 4.956-3.527.011-1.175-.747-2.07-2.389-2.806-.995-.478-1.604-.797-1.597-1.28 0-.43.515-.889 1.63-.889a5.3 5.3 0 012.13.396l.254.12.386-2.24zm7.297-.244h-2.199c-.68 0-1.19.183-1.49.856l-4.226 9.464h2.988s.489-1.273.6-1.552l3.644.004c.085.362.346 1.548.346 1.548h2.64l-2.303-10.32zm-3.509 6.656c.236-.595 1.134-2.887 1.134-2.887-.017.027.234-.598.377-.986l.193.89.659 2.982h-2.363zm-16.954 3.66h2.845l1.78-10.326h-2.846l-1.779 10.326zm-5.47-4.708L8.34 8.146c-.172-.654-.672-.85-1.29-.872H2.462l-.037.215c1.116.267 2.115.653 2.99 1.132l2.53 8.97 3.01-.004 4.48-10.307h-3.014l-2.786 7.042-.297-1.43v-.001z" fill="#fff"/></svg>