<svg width="11" height="19" fill="none" xmlns="http://www.w3.org/2000/svg"><path d="M10.348 0c.226.32.34.813.34 1.477 0 .656-.024 1.191-.07 1.605-.04.406-.102.8-.188 1.184-.188.859-.45 1.507-.785 1.945-.29-1.508-.665-2.586-1.125-3.234-.485-.657-1.118-.985-1.899-.985-.773 0-1.379.149-1.816.446a2.934 2.934 0 00-1.008 1.171c-.39.805-.586 1.993-.586 3.563 0 1.562.176 2.996.527 4.3.36 1.298.867 2.415 1.524 3.352 1.383 1.992 3.183 2.989 5.402 2.989-.031.351-.215.656-.55.914a.68.68 0 01-.329.14c-2.836 0-5.148-1.043-6.937-3.129C.949 13.52 0 10.496 0 6.668c0-2 .586-3.504 1.758-4.512C2.797 1.266 4.218.82 6.023.82L7.98.844c.922 0 1.57-.133 1.946-.399.156-.117.297-.265.422-.445z" fill="#000"/></svg>